# xmcd
#
# Track frame offsets:
#	150
#	12678
#	26315
#	41557
#	58341
#	72758
#	93081
#	107774
#	124441
#	142728
#	159839
#	174749
#
# Disc length: 2505 seconds
#
# Revision: 0
# Processed by: cddbd v1.5.2PL0 Copyright (c) Steve Scherf et al.
# Submitted via: audiograbber 1.83.01
#
DISCID=9c09c70c
DTITLE=Various Artist - Hit Discothek 5
DYEAR=1900
DGENRE=Schlager
TTITLE0=Thomas Beck  - Rote Rosen
TTITLE1=Tanja Laine  - Der Stern Von Mykonos
TTITLE2=Tony Brandin  - Mama Dolores
TTITLE3=Claudia and Mike  - Rund Um Die Welt
TTITLE4=Fred Hamilton  - Rosalie C'est La Vie
TTITLE5=Heinz Forst  - So Liebt Man Ein Mädchen
TTITLE6=Cindy Board  - Bella Italia
TTITLE7=Mike Summer  - Schmetterlinge Können Nicht Weinen
TTITLE8=Bruno Winkler  - Tampico
TTITLE9=Michael Morgan - Der Kleine Prinz
TTITLE10=Claudia May  - Laß Dir Zeit
TTITLE11=Claudia and Mike  - Ich Komm Bald Wieder
EXTD=
EXTT0=
EXTT1=
EXTT2=
EXTT3=
EXTT4=
EXTT5=
EXTT6=
EXTT7=
EXTT8=
EXTT9=
EXTT10=
EXTT11=
PLAYORDER=
